# xmcd
#
# Track frame offsets:
#	150
#	13088
#	31618
#	47393
#	62103
#	75596
#	87524
#	98617
#	111910
#	128568
#	144645
#	155919
#	174481
#	186766
#	198747
#	209409
#	221133
#
# Disc length: 3106 seconds
#
# Revision: 1
# Processed by: cddbd v1.5.2PL0 Copyright (c) Steve Scherf et al.
# Submitted via: audiograbber 1.83.01
#
DISCID=ee0c2011
DTITLE=Superstars of Country - Bed of Roses - Disc 2
DYEAR=2013
DGENRE=Country
TTITLE0=Kenny Rogers and The First Edition - Ruby, Don't Take Your Love To Town
TTITLE1=Johnny Cash - Sunday Morning Comin' Down
TTITLE2=Kris Kristofferson - Why Me
TTITLE3=Judds - Mama, He's Crazy
TTITLE4=Waylon Jennings and Willie Nelson - Good Hearted Woman
TTITLE5=Loretta Lynn - One's On The Way
TTITLE6=Statler Brothers - Bed Of Roses
TTITLE7=Tanya Tucker - Delta Dawn
TTITLE8=Ronnie Milsap - Any Day Now
TTITLE9=Randy Travis - Forever and Ever, Amen
TTITLE10=Conway Twitty - Hello Darlin'
TTITLE11=Juice Newton - The Sweetest Thing (I've Ever Known)
TTITLE12=Merle Haggard - If We Make It Through December
TTITLE13=Oak Ridge Boys - Elvira
TTITLE14=Jerry Reed - Amos Moses
TTITLE15=Billy 'Crash' Craddock - Rub It In
TTITLE16=Johnny Paycheck - Take This Job And Shove It
EXTD=
EXTT0=
EXTT1=
EXTT2=
EXTT3=
EXTT4=
EXTT5=
EXTT6=
EXTT7=
EXTT8=
EXTT9=
EXTT10=
EXTT11=
EXTT12=
EXTT13=
EXTT14=
EXTT15=
EXTT16=
PLAYORDER=
